<?xml version="1.0" encoding="UTF-8"?><svg xmlns="http://www.w3.org/2000/svg" xmlns:xlink="http://www.w3.org/1999/xlink" viewBox="0 0 64.5 64.5"><defs><style>.e{fill:#f15a29;}.f{fill:#f7941e;}.g{fill:#ef4136;}.h{fill:#212a3c;opacity:.2;}.i{fill:url(#d);}.i,.j,.k{opacity:.3;}.j{fill:#fff;}.k{fill:#414042;}</style><linearGradient id="d" x1="-154.07" y1="-60.88" x2="-140.62" y2="-36.14" gradientTransform="translate(152.94 40.99) rotate(-9.05) scale(.83 .85) skewX(1.3)" gradientUnits="userSpaceOnUse"><stop offset="0" stop-color="#fff"/><stop offset="1" stop-color="#fff" stop-opacity="0"/></linearGradient></defs><g id="a"/><g id="b"><g id="c"><g><g><g><circle class="e" cx="32.25" cy="32.25" r="32.25"/><path class="f" d="M4.8,15.33c13.1-.17,32.83-1.4,49.63-6.47,3.45,3.27,6.17,7.29,7.91,11.81C51.11,23.98,28.49,29.21,.27,28.1c.6-4.64,2.17-8.97,4.52-12.78Z"/><path class="g" d="M.01,32.7c.02,1.43,.13,2.84,.33,4.22,30.02,2.36,55.01-3.61,64.12-6.21-.09-2.01-.38-3.97-.82-5.87C41.98,32.2,11.47,32.77,.01,32.7Z"/><path class="f" d="M61.2,46.45c1.65-3.36,2.74-7.04,3.13-10.94-23.74,5.98-49.15,6.48-62.93,6.18,1.34,4.37,3.59,8.33,6.51,11.69-.22-.25-.44-.49-.65-.75,16.3-.88,35.54-2.66,53.93-6.19Z"/></g><path class="g" d="M61.2,46.45h0c-18.39,3.52-37.62,5.3-53.93,6.18,.21,.26,.43,.5,.65,.75,.26,.3,.53,.6,.8,.89,.24,.25,.48,.51,.72,.75,.33,.33,.67,.65,1.02,.97,.33,.3,.66,.59,.99,.88,.35,.3,.71,.59,1.08,.88,.25,.2,.51,.39,.77,.58,.39,.28,.78,.55,1.18,.82,.21,.14,.42,.29,.63,.42,.58,.36,1.17,.7,1.77,1.03,.24,.13,.48,.25,.73,.38,.46,.24,.93,.46,1.41,.68,.21,.1,.42,.2,.64,.29,.66,.28,1.33,.54,2.02,.78,.2,.07,.4,.13,.6,.2,.55,.18,1.11,.35,1.68,.5,.21,.06,.42,.11,.63,.17,.73,.18,1.48,.34,2.23,.46,.13,.02,.26,.04,.39,.06,.66,.1,1.32,.18,1.98,.25,.21,.02,.43,.04,.64,.06,.79,.06,1.59,.1,2.4,.1,.71,0,1.41-.03,2.1-.08,.17-.01,.34-.02,.5-.04,.69-.06,1.37-.13,2.05-.22,.04,0,.07-.01,.11-.02,.65-.1,1.29-.22,1.93-.35,.15-.03,.31-.06,.46-.1,.66-.15,1.32-.32,1.96-.51,.05-.01,.1-.03,.15-.05,.61-.18,1.22-.39,1.81-.61,.13-.05,.25-.09,.38-.14,.64-.24,1.26-.5,1.88-.78,.04-.02,.08-.04,.13-.06,.59-.27,1.17-.56,1.74-.87,.09-.05,.18-.09,.27-.14,.61-.33,1.2-.68,1.78-1.05,.03-.02,.06-.04,.09-.06,.57-.36,1.12-.75,1.67-1.14,.05-.04,.1-.07,.15-.11,.57-.42,1.13-.86,1.67-1.32l.04-.03c.54-.46,1.07-.94,1.58-1.44,.01-.01,.03-.02,.04-.04,.52-.51,1.03-1.04,1.52-1.58h0c1.97-2.2,3.64-4.66,4.95-7.33Z"/><path class="k" d="M42.75,7.73c.13,.96-3.64,2.28-8.42,2.95-4.79,.67-8.77,.44-8.91-.52-.13-.96,3.72-1.66,8.51-2.33,4.79-.67,8.69-1.06,8.82-.1Z"/><path class="k" d="M28,5.67c.09,.62-2.37,1.49-5.5,1.92-3.12,.44-5.73,.29-5.81-.34-.09-.62,2.43-1.08,5.55-1.52,3.12-.44,5.67-.69,5.76-.07Z"/><path class="k" d="M22.34,23.67c.05,.97-3.82,1.95-8.65,2.19-4.83,.24-8.78-.34-8.83-1.31-.05-.96,3.86-1.32,8.68-1.56,4.83-.24,8.75-.28,8.8,.68Z"/><path class="k" d="M51.82,53.61c.16,.95-3.57,2.38-8.34,3.18-4.77,.8-8.76,.68-8.92-.27-.16-.95,3.68-1.76,8.44-2.56,4.77-.81,8.66-1.3,8.82-.35Z"/><path class="k" d="M38.51,17.24c.08,.62-2.27,1.46-5.27,1.86-3,.4-5.49,.23-5.57-.39-.08-.62,2.33-1.05,5.32-1.46,2.99-.41,5.43-.63,5.52,0Z"/><path class="k" d="M28.69,45.39c.07,.62-2.3,1.41-5.31,1.75-3,.34-5.49,.12-5.57-.51-.07-.62,2.35-1,5.35-1.35,3-.34,5.45-.52,5.52,.1Z"/><path class="k" d="M58.05,17.48c.17,.74-2.56,1.98-6.09,2.78-3.53,.8-6.53,.85-6.7,.11-.17-.73,2.67-1.5,6.2-2.3,3.53-.8,6.42-1.33,6.59-.59Z"/><path class="k" d="M54,30.71c.14,.76-2.8,1.95-6.59,2.67-3.78,.72-6.96,.69-7.11-.07-.14-.76,2.9-1.46,6.68-2.18,3.78-.72,6.87-1.18,7.01-.42Z"/></g><g><path class="h" d="M58.19,13.1c-10.22,14.51-29.74,38.13-49.98,40.65,5.91,6.6,14.48,10.76,24.04,10.76,17.81,0,32.25-14.44,32.25-32.25,0-7.17-2.34-13.8-6.31-19.15Z"/><path class="h" d="M64.48,31.56c-10.41,12.77-28.27,28.9-50.94,26.95,5.28,3.77,11.73,5.99,18.71,5.99,17.81,0,32.25-14.44,32.25-32.25,0-.23-.01-.46-.02-.69Z"/></g><path class="i" d="M43.25,8.16c4.33,7.36-.6,18.29-11.01,24.41-10.41,6.12-22.35,5.1-26.68-2.26-4.33-7.36,.6-18.29,11.01-24.41C26.97-.22,38.92,.8,43.25,8.16Z"/><path class="j" d="M33.68,7.2c2.58,4.4-.82,11.19-7.6,15.18-6.78,3.98-14.37,3.65-16.95-.75-2.59-4.4,.81-11.19,7.6-15.18,6.78-3.98,14.37-3.65,16.96,.75Z"/></g></g></g></svg>