<?xml version="1.0" encoding="UTF-8"?><svg xmlns="http://www.w3.org/2000/svg" xmlns:xlink="http://www.w3.org/1999/xlink" viewBox="0 0 136.83 136.83"><defs><style>.e{fill:#f58466;}.f{fill:#fed09e;}.g{fill:#e05b41;}.h{fill:#212a3c;opacity:.2;}.i{fill:url(#d);}.i,.j{opacity:.3;}.j{fill:#fff;}</style><linearGradient id="d" x1="-71.49" y1="-113.44" x2="-43.88" y2="-62.64" gradientTransform="translate(111.92 104.55) rotate(-9.87) scale(.83 .85) skewX(1.3)" gradientUnits="userSpaceOnUse"><stop offset="0" stop-color="#fff"/><stop offset="1" stop-color="#fff" stop-opacity="0"/></linearGradient></defs><g id="a"/><g id="b"><g id="c"><g><circle class="e" cx="68.41" cy="68.41" r="68.41" transform="translate(-13.89 119.27) rotate(-76.72)"/><g><path class="g" d="M81.2,99.79c-9.61,0-20.48-.42-21.64,0-1.16,.42-5.28,3.17-14.57,3.17s-18.16-4.01-23.12-4.75c-4.08-.61-12.23-2.14-16.11-2.32,5.38,12.25,14.24,22.61,25.34,29.85,10.21,.25,21.44,.44,26.77,.23,7.71-.29,35.17-1.71,51.18-2.54,8.19-6.06,14.97-13.9,19.78-22.95-9.68-.17-39.61-.69-47.63-.69Z"/><path class="g" d="M4.69,43.52h.61s9.08,1.37,9.92,1.37h12.25l10.24-.21,35.79-.74,12.25-1.06s15.73-1.05,16.68-1.05,18.05,1.69,18.58,1.69,6.44-.21,6.44-.21l4.23-.92c-2.14-5.19-4.89-10.07-8.18-14.53-1.27-.11-2.5-.24-3.44-.39-3.38-.53-9.71,0-12.77,.32s-44.45-.11-44.45-.11c0,0-3.38,.53-4.22,.63-.84,.11-11.72-.42-12.25-.63-.53-.21-7.92-.95-8.34-1.06-.42-.11-7.07-.63-8.23-1.16-1.16-.53-4.01-.63-4.01-.63l-11.24,1.43c-4.07,5.2-7.41,11-9.85,17.25Z"/></g><g><path class="f" d="M10.61,49.18h3.66l18.86-2.25s14.36-1.41,16.61-1.69c2.25-.28,7.88-.28,7.88-.28,0,0,26.18-.28,27.59-.28s18.58-1.13,18.58-1.13c0,0,10.42,.28,11.82,.28s11.26,1.41,12.95,1.69c.91,.15,2.87,.38,4.5,.57-.66-1.92-1.41-3.8-2.23-5.63h-29.29l-4.22-.28s-7.6-.56-10.42-.84c-2.82-.28-7.32,0-8.73,0h-12.67c-1.69,0-18.58,.56-20.27,.84-1.69,.28-7.04,.56-9.01,.84-1.97,.28-5.91,0-8.45,0s-4.79,.28-4.79,.28l-8.45,.84-9.37,.11c-.7,1.68-1.33,3.4-1.89,5.14,3.15,.92,7.31,1.79,7.31,1.79Z"/><path class="f" d="M102.95,120.21s-14.36,1.41-16.61,1.69c-2.25,.28-7.88,.28-7.88,.28,0,0-26.18,.28-27.59,.28s-18.58,1.13-18.58,1.13c0,0-2.05-.06-4.46-.12,1.54,1.13,3.13,2.21,4.76,3.21h1.96l4.22,.28s7.6,.56,10.42,.84c2.82,.28,7.32,0,8.73,0h12.67c1.69,0,18.58-.56,20.27-.84,1.69-.28,7.04-.56,9.01-.85,1.27-.18,3.35-.13,5.36-.07,3.35-2.14,6.51-4.56,9.43-7.24l-11.69,1.39Z"/><path class="f" d="M125.51,97.98h-11.01c-2.26,0-9.32-.22-15.53-.66-4.55-.32-9.09-.84-13.64-1.15-4.24-.29-8.49-.5-12.74-.7-14.61-.68-29.45-2.95-44.06-2.29-7.85,.36-15.71,.56-23.57,.79,.4,.98,.81,1.95,1.25,2.91h1.84c.85,0,2.82,.66,5.37,1.1,3.86,.67,7.94,1.06,11.66,2.35,7.47,2.59,14.89,6.61,23.05,5.81,3.27-.32,6.73-.53,9.89-1.42,5.38-1.52,10.54-2.73,16.16-3.06,5.53-.33,11.07-.15,16.6-.15h9.32c2.82,0,12.99,.66,15.25,.66s6.49,.44,7.91,.88c1.02,.32,2.9,.41,3.88,.43,1.07-1.78,2.06-3.62,2.97-5.5h-4.59Zm-80.5,4.34c-3.33-.11-6-1.43-5.94-2.95,.05-1.52,2.79-2.66,6.13-2.55,3.33,.11,6,1.43,5.94,2.95-.05,1.52-2.79,2.66-6.13,2.55Z"/><path class="f" d="M12.3,29.29c.45-.03,.92-.06,1.41-.09,3.94-.28,16.05,0,19.14,0s18.86,1.13,22.24,1.13,17.74,.28,23.65,.28,14.64,2.53,32.09,2.82c5.64,.09,11.25,0,16.26-.15-3.14-5.23-6.96-10-11.34-14.2h-.14c-5.63-.29-10.7,.27-16.33,.84-8.16,.84-16.33-.56-24.49-1.13-13.23-1.13-27.59-2.25-40.82-1.13-4.41,.38-8.78,1-13.16,1.64-3.15,3.05-6,6.4-8.52,10Zm41.23-8.97c7.77,.26,14.02,2.15,13.95,4.21-.07,2.07-6.43,3.53-14.2,3.27-7.77-.26-14.02-2.14-13.95-4.21,.07-2.07,6.43-3.53,14.2-3.27Z"/><path class="f" d="M3.86,68.04c.84,0,4.5,.56,6.76,.84,6.99,.87,14.09,.34,21.04,1.49,5.78,.95,11.79,1.18,17.5,2.35,4.05,.82,7.81,2.75,11.7,4.09,10.98,3.78,22.93,4.22,34.25,1.75,5.5-1.2,10.71-3.35,16.1-4.95,5.33-1.58,10.74-2.09,16.23-2.75h9.31c.03-.82,.06-1.63,.06-2.45,0-.88-.03-1.75-.07-2.62-5.8-.49-11.58-.64-17.41-.9-7.98-.36-14.81-4.02-22.19-6.56-5.85-2.02-11.94-3.48-18.15-3.6-9.87-.2-18.39,4.62-27.84,6.6-7.09,1.48-14.57,.83-21.76,.81-8.98-.03-17.96,0-26.95,0H.3c-.18,2-.29,4.02-.29,6.06,1.98-.09,3.57-.15,3.85-.15Zm76.81-7.03c8.7,.29,15.65,3.74,15.52,7.7-.13,3.96-7.29,6.94-16,6.65-8.7-.29-15.65-3.74-15.52-7.7,.13-3.96,7.29-6.94,16-6.65Z"/></g><path class="h" d="M14.44,110.45c15.75,20.19,42.24,30.67,68.89,24.71,36.87-8.24,60.08-44.81,51.83-81.68-2.13-9.55-6.18-18.17-11.63-25.58C107.04,53.9,60.5,119.23,14.44,110.45Z"/><path class="h" d="M17.94,114.58c16,17.46,40.62,26.12,65.39,20.59,34.73-7.76,57.33-40.67,52.94-75.27-18.38,26.47-61.05,74.57-118.33,54.69Z"/><path class="i" d="M88,15.18c9.1,14.99-.69,37.57-21.88,50.43-21.18,12.86-45.73,11.14-54.83-3.85-9.1-14.99,.69-37.57,21.88-50.43C54.35-1.53,78.9,.19,88,15.18Z"/><path class="j" d="M68.34,13.51c5.44,8.95-1.34,23-15.14,31.38-13.8,8.38-29.4,7.91-34.83-1.04-5.44-8.95,1.34-23,15.14-31.38,13.8-8.38,29.4-7.92,34.83,1.04Z"/></g></g></g></svg>