<?xml version="1.0" encoding="UTF-8"?>
<svg xmlns="http://www.w3.org/2000/svg" xmlns:xlink="http://www.w3.org/1999/xlink" viewBox="0 0 116.67 116.67">
    <defs>
        <style>.e{fill:#f9b673;}.f{fill:#ffe1c5;}.g{fill:#db8231;}.h{fill:#fed09e;opacity:.2;}.i{fill:url(#d);}.i,.j{opacity:.3;}.j{fill:#fff;}</style>
        <linearGradient id="d" x1="-112.29" y1="-72.13" x2="-85.43" y2="-22.71" gradientTransform="translate(134.49 65.63) rotate(-9.05) scale(.83 .85) skewX(1.3)" gradientUnits="userSpaceOnUse">
            <stop offset="0" stop-color="#fff" />
            <stop offset="1" stop-color="#fff" stop-opacity="0" />
        </linearGradient>
    </defs>
    <g id="a" />
    <g id="b">
        <g id="c">
            <g>
                <g>
                    <path class="f" d="M116.67,58.33c0,32.22-26.12,58.33-58.33,58.33S0,90.55,0,58.33,26.12,0,58.33,0s58.33,26.12,58.33,58.33Z" />
                    <path class="e" d="M82.53,36.73c-4.75-2.16-5.62-3.89-10.8-3.46-8.21,.43-15.12,6.05-23.77,5.18-9.07-.86-15.99-4.75-25.49-2.59-6.05,1.73-6.48,1.73-12.96,.87-1.55-.22-3.3-.39-5.16-.5C1.55,43.05,0,50.51,0,58.33c0,32.22,26.12,58.33,58.33,58.33s58.33-26.12,58.33-58.33c0-7.1-1.27-13.9-3.59-20.19-9.29,4.53-20.38,3.67-30.54-1.41Z" />
                    <path class="g" d="M65.68,77.78c-6.05,3.46-12.1,2.59-19.01,3.89-14.26,2.59-19.44-8.64-31.97-10.8-4.75-.86-8.21-.86-12.96-2.59-.3-.07-.61-.16-.91-.25,4.62,27.6,28.6,48.64,57.52,48.64,32.22,0,58.33-26.12,58.33-58.33,0-.26-.02-.52-.02-.79-9.5,2.3-20.26,8.24-27.63,11.59-8.21,3.89-15.12,4.32-23.33,8.64Z" />
                    <path class="e" d="M18.69,15.56c1.17-1.08,2.38-2.11,3.63-3.09,1.47,.03,3.17,.07,3.17,.07h5.51c.43,0,13.94-.22,13.94-.22,0,0,2.59-.32,3.03-.32,.32,0,3.73,.12,5.52,.18,.64,.02,1.07,.04,1.07,.04,0,0-1.84,.11-3.46,.43-1.62,.32-3.57,.76-4.11,.87-.54,.11-1.4,0-2.38,.11-.97,.11-2.48,.32-3.67,.65-1.19,.32-2.92,.22-3.89,.43-.97,.22-2.05,.32-4.11,.43-2.05,.11-6.05,.43-7.24,.43h-7.02Z" />
                    <path class="e" d="M92.36,103.7c-3.19-.08-10.43-.97-17.02-.97s-14.26,.65-14.26,.65c0,0,6.6,.97,9.68,.97h6.6c1.49,0,3.62,.57,5.75,.65,2.13,.08,7.13-.08,7.13-.08,0,0,1.48-.09,3.48-.21,.51-.39,1.03-.79,1.53-1.2-1.07,.14-2.07,.22-2.88,.2Z" />
                    <path class="e" d="M95.89,28.9c-.55,.05-2.53,.29-4.17,.44-1.64,.16-3.48,.08-3.48,.08,0,0,.43,.06,1.06,.14,1.77,.24,5.15,.71,5.47,.74,.43,.04,3.04-.02,3.04-.02,0,0,8.55,.73,12.23,1.05-.48-.91-.97-1.81-1.5-2.69-1.16-.03-1.93-.01-2.65,.07-.99,.12-2.7-.17-3.91,.04-1.22,.2-2.74,.26-3.72,.27-.98,0-1.83-.19-2.37-.13Z" />
                    <path class="e" d="M40.16,21.74s5.02,.97,7.37,.97h5.02c1.13,0,2.75,.57,4.38,.65,1.62,.08,5.43-.08,5.43-.08,0,0,7.37-.57,9.88-.89,2.51-.32,4.05-.16,6.16-.32,2.11-.16,2.43-.08,4.62-.08s2.92,.32,4.86,.32,2.35,.08,4.46,.08,2.67-.24,3.32-.24,1.46,0,2.11-.16c.65-.16-1.22-.57-1.22-.57h-2.59c-.32,0-.65,0-1.3-.08-.65-.08-1.94-.08-1.94-.08,0,0-8.67-.65-8.91-.65h-9.64c-.97,0-5.75,1.54-8.18,1.46-2.43-.08-7.94-.97-12.96-.97s-10.86,.65-10.86,.65Z" />
                    <g>
                        <path class="f" d="M116.19,50.94c-1.86-.16-4.64-.39-4.76-.39-.17,0-6.21,.22-6.9,.25-.7,.02-4.05,1.94-5.8,1.91-1.74-.03-5.73-.93-9.32-.8-3.6,.13-7.75,1.03-7.75,1.03,0,0,3.64,1,5.32,.94,1.68-.06,2.79-.1,3.6-.13,.81-.03,2,.59,3.16,.64,1.16,.05,3.88-.23,3.88-.23,0,0,5.25-.85,7.04-1.29,1.79-.44,2.89-.29,4.4-.54,1.5-.24,1.74-.16,3.3-.21,1.57-.06,2.1,.3,3.5,.25,.18,0,.35,0,.5-.01-.05-.48-.1-.95-.16-1.43Z" />
                        <path class="f" d="M14.39,50.1s5.02,.97,7.37,.97h5.02c1.13,0,2.75,.57,4.38,.65,1.62,.08,5.43-.08,5.43-.08,0,0,7.37-.57,9.88-.89s4.05-.16,6.16-.32c2.11-.16,2.43-.08,4.62-.08s2.92,.32,4.86,.32,2.35,.08,4.46,.08,2.67-.24,3.32-.24,1.46,0,2.11-.16c.65-.16-1.22-.57-1.22-.57h-2.59c-.32,0-.65,0-1.3-.08-.65-.08-1.94-.08-1.94-.08,0,0-8.67-.65-8.91-.65h-9.64c-.97,0-5.75,1.54-8.18,1.46-2.43-.08-7.94-.97-12.96-.97s-10.86,.65-10.86,.65Z" />
                        <path class="f" d="M62.98,69.14c1.35,0,1.79,.32,2.99,.32s1.45,.08,2.74,.08,1.64-.24,2.04-.24,.9,0,1.3-.16c.4-.16-.75-.57-.75-.57h-1.6c-.2,0-.4,0-.8-.08-.4-.08-1.2-.08-1.2-.08,0,0-5.34-.65-5.49-.65h-5.93c-.6,0-3.54,1.54-5.04,1.46-1.5-.08-4.89-.97-7.98-.97s-6.68,.65-6.68,.65c0,0,3.09,.97,4.54,.97h3.09c.7,0,1.7,.57,2.69,.65,1,.08,3.34-.08,3.34-.08,0,0,4.54-.57,6.08-.89,1.55-.32,2.49-.16,3.79-.32,1.3-.16,1.5-.08,2.84-.08Z" />
                    </g>
                    <path class="e" d="M70.04,92.25c2.77-.16,3.19-.08,6.07-.08s3.83,.32,6.38,.32,3.08,.08,5.85,.08,3.51-.24,4.36-.24,1.91,0,2.77-.16-1.59-.57-1.59-.57h-3.41c-.43,0-.85,0-1.7-.08-.85-.08-2.55-.08-2.55-.08,0,0-11.38-.65-11.71-.65h-12.66c-1.28,0-7.56,1.54-10.75,1.46-3.19-.08-10.43-.97-17.03-.97s-14.26,.65-14.26,.65c0,0,6.6,.97,9.68,.97h6.6c1.49,0,3.62,.57,5.75,.65,2.13,.08,7.13-.08,7.13-.08,0,0,9.68-.57,12.98-.89,3.3-.32,5.32-.16,8.09-.32Z" />
                    <path class="e" d="M111.05,77.21c-2.04,.21-3.12,.37-4.08,.64-.96,.27-2.69,.25-3.86,.63-1.17,.38-2.67,.68-3.63,.83-.97,.16-1.83,.1-2.37,.23-.54,.14-2.46,.67-4.06,1.07-1.6,.41-3.43,.61-3.43,.61,0,0,.43,0,1.07-.02,1.79-.03,5.2-.09,5.52-.1,.43-.02,3-.48,3-.48,0,0,10.84-.73,13.38-.89,.37-.93,.71-1.87,1.03-2.82-.96,.12-1.88,.23-2.58,.3Z" />
                    <path class="e" d="M33.85,105.52c.98-.06,1.83,.1,2.38,.02,.55-.08,2.51-.4,4.15-.64,1.64-.23,3.47-.24,3.47-.24,0,0-.43-.04-1.07-.09-1.78-.16-5.18-.47-5.5-.48-.43-.03-3.04,.16-3.04,.16,0,0-8.95-.35-12.5-.49,1.11,.89,2.25,1.75,3.42,2.56,.39-.03,.74-.07,1.08-.13,.98-.16,2.7,.04,3.91-.21,1.21-.26,2.73-.39,3.7-.45Z" />
                </g>
                <g>
                    <path class="h" d="M105.83,24.49C88.09,50.09,51.64,95.24,14.45,96.75c10.69,12.2,26.38,19.92,43.88,19.92,32.22,0,58.33-26.12,58.33-58.33,0-12.62-4.02-24.3-10.84-33.84Z" />
                    <path class="h" d="M116.62,56.5c-18.48,23.22-51.93,54.36-94.7,47.39,9.98,7.99,22.64,12.78,36.42,12.78,32.22,0,58.33-26.12,58.33-58.33,0-.62-.03-1.23-.05-1.84Z" />
                </g>
                <path class="i" d="M83.25,15.98c8.64,14.71-1.2,36.53-21.99,48.75-20.79,12.22-44.64,10.19-53.29-4.52C-.67,45.51,9.18,23.68,29.96,11.47,50.75-.75,74.61,1.27,83.25,15.98Z" />
                <path class="j" d="M64.15,14.08c5.16,8.79-1.63,22.36-15.18,30.31-13.54,7.96-28.7,7.29-33.86-1.5-5.16-8.79,1.63-22.36,15.17-30.31,13.54-7.96,28.7-7.29,33.87,1.5Z" />
            </g>
        </g>
    </g>
</svg>