<?xml version="1.0" encoding="UTF-8"?><svg xmlns="http://www.w3.org/2000/svg" xmlns:xlink="http://www.w3.org/1999/xlink" viewBox="0 0 138.34 138.33"><defs><style>.e{fill:#a4dbf4;}.f{fill:#0e577f;}.g{fill:#196ea5;}.h{fill:#27aae1;}.i{fill:#5fb2e0;}.j{fill:#212a3c;opacity:.2;}.k{fill:url(#d);}.k,.l{opacity:.3;}.l{fill:#fff;}</style><linearGradient id="d" x1="-24.66" y1="-47.3" x2="5.81" y2="8.77" gradientTransform="translate(63.93 56.9) rotate(-9.05) scale(.83 .85) skewX(1.3)" gradientUnits="userSpaceOnUse"><stop offset="0" stop-color="#fff"/><stop offset="1" stop-color="#fff" stop-opacity="0"/></linearGradient></defs><g id="a"/><g id="b"><g id="c"><g><g><g><path class="g" d="M138.33,70.17c-.55,38.19-31.96,68.71-70.16,68.16C29.97,137.77-.54,106.36,0,68.17,.56,29.97,31.97-.55,70.17,0c38.2,.55,68.71,31.96,68.16,70.16Z"/><g><path class="h" d="M138.14,64.2c-5.23,.14-10.43,.1-15.56-1.23-8.68-2.25-16.48-7.04-25.23-9.09-11.84-2.78-24.45-3.18-36.52-2.01-11.93,1.16-23.05,6.29-34.95,7.6-8.33,.92-16.78,.47-25.2,.08C.29,62.37,.05,65.25,0,68.17c-.02,1.48,.02,2.95,.09,4.42,3.65,.05,7.3,.11,10.95,.16,18.22,.26,35.81,6.62,53.86,8.59,12.38,1.35,24.88,.43,37.25-.68,5.32-.48,9.82-3.74,15.09-4.24,4.5-.43,9.02-.49,13.54-.59,.53-.01,3.59,.01,7.21,0,.18-1.87,.31-3.75,.33-5.65,.03-2.01-.05-4-.19-5.97Z"/><path class="h" d="M133.16,95.4c-3.06,.57-7.39,1.46-9.22,2.26-2.96,1.3-12.92,2.84-15.88,3.81-2.96,.97-7.36,.23-7.36,.23,0,0-21.34-.31-22.44-.32-1.1-.02-13.21-2.21-16.13-3.94-2.92-1.72-10.27-2.17-10.27-2.17l-23.86-3.71-23.39,2.42c2.45,6.37,5.82,12.29,9.95,17.6,7.08,.17,14.03,1.21,17.92,1.26,4.05,.06,12.86,1.2,17.26,2.27,4.4,1.07,8.09,.46,9.93,.48,1.84,.03,18.4-.41,33.5-.86,15.09-.46,8.83,.13,11.78-.5,2.95-.63,7.72,.11,11.4,.16,2.78,.04,3.88,.06,5.2-.07,4.83-5.59,8.76-11.97,11.62-18.92Z"/><path class="h" d="M9.53,34.15c10.84-2.93,28.49-5.99,45.45-1.48,27.12,7.22,34.87,5.53,44.47,3.52,9.6-2.02,15.49-2.29,17.7-2.26,1.23,.02,6.87,.1,11.65,.17-3.18-5.39-7.08-10.31-11.55-14.64-1.46-.17-2.87-.3-3.93-.32-3.31-.05-9.19-.49-14.71-.93-5.51-.44-16.53-2.04-18.37-2.06-1.84-.03-1.83-.39-9.19-.85-7.35-.46-19.46-2.8-24.61-3.23-4.97-.42-8.58-1.48-13.8-1.62-9.48,5.91-17.43,14.05-23.12,23.71Z"/></g><path class="i" d="M104.7,67.29c-.08,5.49-12.08,9.76-26.81,9.55-14.73-.21-26.61-4.83-26.53-10.32,.08-5.49,12.08-9.76,26.81-9.55,14.73,.21,26.61,4.83,26.53,10.32Z"/><path class="e" d="M92.93,67.12c-.04,3.06-6.75,5.45-14.98,5.33-8.23-.12-14.86-2.7-14.82-5.76,.04-3.06,6.75-5.45,14.98-5.33,8.23,.12,14.86,2.7,14.82,5.76Z"/><path class="i" d="M98.65,27.63c-.12,3.33-7.46,5.76-16.4,5.44-8.93-.32-16.08-3.29-15.96-6.61,.12-3.33,7.46-5.76,16.4-5.44,8.93,.32,16.08,3.28,15.96,6.61Z"/><path class="e" d="M91.51,27.37c-.07,1.86-4.17,3.22-9.16,3.04-4.99-.18-8.98-1.84-8.91-3.69,.07-1.86,4.17-3.22,9.16-3.04,4.99,.18,8.98,1.83,8.92,3.69Z"/><path class="e" d="M43.21,21.85c-.05,1.44-3.24,2.5-7.12,2.36-3.88-.14-6.98-1.43-6.92-2.87,.05-1.44,3.24-2.5,7.12-2.36,3.88,.14,6.98,1.42,6.92,2.87Z"/><path class="i" d="M34.23,67.65c-.02,1.68-6.06,2.95-13.47,2.84-7.42-.11-13.41-1.55-13.38-3.23,.02-1.68,6.06-2.95,13.47-2.84,7.42,.11,13.41,1.55,13.38,3.23Z"/><path class="i" d="M117.5,107.86c-.02,1.49-5.37,2.62-11.95,2.52-6.58-.09-11.89-1.38-11.87-2.86,.02-1.49,5.37-2.62,11.95-2.52,6.58,.09,11.89,1.38,11.87,2.86Z"/><path class="e" d="M59.6,104.48c-.06,2.07-7.53,3.55-16.7,3.29-9.17-.25-16.55-2.14-16.49-4.21,.06-2.07,7.54-3.54,16.7-3.29,9.16,.25,16.55,2.14,16.49,4.21Z"/></g><path class="f" d="M136.3,85.8c-.36,1.48-.77,2.94-1.22,4.38-1.91-.04-3.82-.04-5.73,.05-4.32,.23-8.36,1.56-12.61,2.17-5.88,.85-12.43,1.66-18.37,1.65-4.09,0-8.16-.54-12.22-.92-3.43-.32-7.14,.1-10.5-.7-6.56-1.55-13.61-2.84-20.3-3.69-8.32-1.06-16.79-2.78-25.13-3.4-5.7-.42-11.7-.81-17.4-.83-3.4,0-6.77,.06-10.16,.12-.3,0-.6,0-.9,.01-.18-.8-.37-1.6-.52-2.42,5.82,0,11.83,.71,17.48,1.08,11.46,.75,22.9,1.79,34.38,2.1,5.98,.16,11.58,1.77,17.47,2.6,4.14,.59,7.94,1.18,12.1,.97,6.54-.32,13.07,.06,19.61,.22,6.01,.15,11.91-.49,17.89-.56,5.46-.07,10.83-1.52,16.14-2.86ZM22.86,46.06c4.74-.65,8.89-1.38,13.73-1.29,8.81,.17,17.61,.36,26.42,.59,13.66,.35,27.33-1.05,40.9,1.21,4.67,.78,9.16,2.48,13.91,2.85,5.48,.43,11.77-.99,17.11,.28,.15,.04,.38,.07,.64,.1-.52-1.79-1.13-3.55-1.79-5.27-15.08,.21-30.32-.75-45.26-2.32-7.93-.83-15.9-1.97-23.86-2.44-16.14-.95-32.3-.45-48.46-.64-3.09-.04-6.17-.1-9.26-.19-1.62,3.33-2.97,6.81-4.05,10.41,6.66-.84,13.34-2.37,19.96-3.29ZM48.2,3.26l10.85,2.48s7.54,.29,8.28,.3c.74,.01,11.94,1.28,13.04,1.48,1.1,.2,10.63,2.54,11.37,2.56,.74,0,6.61,.65,7.9,.67,1.08,.01,5.61,.34,7.39,.55C96.42,4.34,83.79,.2,70.17,0c-7.66-.11-15.05,1.05-21.97,3.25Zm36.59,118.38c-.55,0-6.08,.46-6.82,.64-.74,.18-8.85,1.71-8.85,1.71,0,0-8.46-.49-9.01-.5-.55,0-8.09-.12-10.3-.33-2.2-.22-15.98-1.7-15.98-1.7l-10.08-.15c11.9,10.38,27.39,16.77,44.42,17.01,16.79,.24,32.26-5.52,44.38-15.29,0-.04,0-.07,0-.07,0,0-9.55-.87-10.11-.88-.55,0-7.54-.11-8.46-.12-.92-.01-8.64-.31-9.19-.32Z"/></g><g><path class="j" d="M125.49,29.02C105.29,58.58,60.85,114.86,16.15,113.55c12.47,14.88,31.08,24.47,52.02,24.77,38.2,.55,69.61-29.96,70.16-68.16,.22-15.33-4.57-29.56-12.84-41.14Z"/><path class="j" d="M138.21,65.25c-21.37,27.6-62.38,67.32-115.22,55.39,12,10.78,27.79,17.44,45.18,17.69,38.2,.55,69.61-29.96,70.16-68.16,.02-1.66-.03-3.29-.12-4.92Z"/></g><path class="k" d="M95.34,16.09c9.8,16.69-1.37,41.45-24.95,55.31-23.58,13.86-50.65,11.56-60.46-5.12C.13,49.58,11.3,24.82,34.88,10.96,58.46-2.89,85.53-.6,95.34,16.09Z"/><path class="l" d="M73.67,13.92c5.86,9.97-1.85,25.36-17.22,34.39-15.36,9.03-32.57,8.27-38.42-1.7-5.86-9.97,1.85-25.36,17.21-34.39,15.36-9.03,32.57-8.27,38.42,1.7Z"/></g></g></g></svg>