<?xml version="1.0" encoding="UTF-8"?>
<svg xmlns="http://www.w3.org/2000/svg" xmlns:xlink="http://www.w3.org/1999/xlink" viewBox="0 0 88.39 88.39">
    <defs>
        <style>.e{fill:#f9f98f;}.f{fill:#d7df23;}.g{fill:#34b1e4;}.h{fill:#212a3c;opacity:.2;}.i{fill:url(#d);}.i,.j{opacity:.3;}.j{fill:#fff;}</style>
        <linearGradient id="d" x1="-57.92" y1="-88.63" x2="-40.08" y2="-55.81" gradientTransform="translate(85.43 79.95) rotate(-9.87) scale(.83 .85) skewX(1.3)" gradientUnits="userSpaceOnUse">
            <stop offset="0" stop-color="#fff" />
            <stop offset="1" stop-color="#fff" stop-opacity="0" />
        </linearGradient>
    </defs>
    <g id="a" />
    <g id="b">
        <g id="c">
            <g>
                <g>
                    <path class="g" d="M88.39,44.19c0,24.41-19.79,44.19-44.19,44.19S0,68.6,0,44.19,19.79,0,44.2,0s44.19,19.79,44.19,44.19Z" />
                    <g>
                        <path class="f" d="M47,72.81c1.36-2.41-.15-7.38-.15-8.59s-6.78-4.52-8.44-5.12c-1.66-.6-2.41,.3-2.41,.3,0,0-9.79,2.86-11,4.82-1.21,1.96-8.89-1.96-9.19-3.77-.3-1.81-2.11-7.23-2.26-7.84-.15-.6-8.14-6.18-9.04-6.33-.42-.07-2.28,.59-4.34,1.62,1.74,20.85,17.94,37.57,38.55,40.12,.15-2.6-.24-5.01,0-8.14,.3-4.07,.75-2.26,3.77-3.77,3.01-1.51,3.16-.9,4.52-3.32Z" />
                        <path class="f" d="M55.38,76.63c-.61,1.37-.55,2.52,1.1,3.03,1.21,.37,2.3-.03,3.47-.3,1.02-.24,2.39,.05,3.22-.68,2.51-2.18,.45-4.17-1.65-5.68-.66-.47-1.35-.9-2.02-1.37-2.91-2.05-3.42,3.43-4.12,5Z" />
                        <path class="f" d="M67.19,6.45c-2.53,3.68-4.63,8.44-2.71,12.58,3.77,8.14,9.79,4.82,4.67,16.57-5.12,11.75-8.89,6.63-8.29,18.23,.6,11.6,2.71,18.53,6.63,18.38s4.97-15.82,15.22-14.31c1.22,.18,2.29,.47,3.23,.81,1.58-4.55,2.45-9.43,2.45-14.51,0-15.99-8.49-29.99-21.2-37.75Z" />
                        <path class="f" d="M15.21,17.07c3.62,2.11,4.37,1.96,9.04,8.44,4.67,6.48-1.51,7.98-3.01,13.56-1.51,5.58-1.21,9.49,.9,11.3,2.11,1.81,15.07,1.05,14.16-3.31-.9-4.37-1.05-10.25-1.05-15.37s3.77-1.81,8.74-3.92c4.97-2.11,4.07-11,4.07-12.66s-4.07-7.99-7.08-9.79c-1.27-.76-3.4-2.6-5.43-4.46-10.31,2.05-19.32,7.68-25.69,15.54,1.46,.39,3.39-.47,5.36,.68Z" />
                        <path class="f" d="M62.24,28.68c-.86-1.17-2.32-1.7-3.74-1.68-.5,.01-1,.09-1.47,.24-2.11,.67-3.4,2.85-3.66,4.99-.22,1.82,.75,8.29,.9,8.89,.15,.6,.3,2.26,.15,3.47-.08,.65,1.74-.25,1.93-.34,1.16-.56,2.3-1.18,2.98-2.32,.76-1.27,.91-2.8,1.48-4.15,1.16-2.74,3.51-6.21,1.41-9.08Z" />
                    </g>
                    <g>
                        <path class="e" d="M80.95,50.96c1.02-.4,1.66-.68,1.95-1.82,.58-2.28-.66-4.85-2.32-6.37-.96-.89-2.21-1.36-3.54-1.19-.41,.06-.84,.16-1.27,.3-1.79,.59-3.6,1.87-4.6,3.29-1.04,1.49-.78,3.34-.82,5.07-.03,1.26-.1,2.51-.22,3.76-.11,1.18-1.42,3.25,.15,3.91,3.3,1.39,4.48-2.25,6.41-4.28,1.14-1.2,2.74-2.07,4.26-2.68Z" />
                        <path class="e" d="M72.11,9.94c-.75,1.15-1.27,2.63-1.52,3.68-.53,2.17,1.21,5.02,3.23,5.8,1.72,.66,1.14,2.27,.83,3.7-.45,2.09-1.21,4.15-1.21,6.31,0,2.39,.13,3.54,2.81,3.64,1.12,.04,2.35,.16,2.79-1.07,.5-1.36,.23-3.07-.03-4.46-.23-1.21-.08-1.66,.3-2.79,.33-.98,.75-2.04,.75-3.09,0-.83-.9-2.11-1.28-3.24-.3-.89-.17-.94-.37-2.18-1.89-2.31-4-4.42-6.31-6.3Z" />
                        <path class="e" d="M39.02,64.87c-1.34-.06-2.55,.71-3.79,1.09-.8,.25-1.61,.48-2.41,.72-.68,.2-1.35,.41-2.02,.65-2.92,1.03-5.75,2.59-7.17,5.47-.55,1.11,3.49,1.32,3.93,1.35,2.07,.14,4.07-.44,6.1-.75,2.12-.32,4.27-.39,6.38-.79,1.86-.34,3.19-1.39,3.67-3.28,.69-2.71-2.3-4.37-4.69-4.48Z" />
                        <path class="e" d="M30.5,15.47c-.42-.11-1.09-.69-1.51-.66-2.2,.15-.75,3.71,.01,4.53,1.32,1.41,2.9,2.99,4.88,1.49,.81-.6,1.63,.33,2.32,.7,.33,.18,2.56,1.38,2.91,1.1,.93-.73,2.05-1.41,2.71-2.41,1.54-2.32,1.12-5.59,.2-8.04-.95-2.54-3.65-4.59-6.05-5.66-.45-.2-.92-.28-1.37-.25-1.75,.1-2.88,1.74-2.33,3.41,0,.01,.61,1.81,1.51,3.21,.91,1.41,0,1.61-.1,2.21-.15,.91-2.64,.51-3.19,.36Z" />
                    </g>
                </g>
                <g>
                    <path class="h" d="M9.9,72.06c8.1,9.96,20.45,16.32,34.29,16.32,24.41,0,44.19-19.79,44.19-44.19,0-9.92-3.26-19.07-8.78-26.44-11.75,18.1-40.59,57.05-69.71,54.31Z" />
                    <path class="h" d="M13.12,75.61c7.98,7.9,18.96,12.78,31.08,12.78,24.41,0,44.19-19.79,44.19-44.19,0-1.63-.09-3.24-.27-4.82-12.67,17.6-39.45,46.08-75.01,36.23Z" />
                </g>
                <path class="i" d="M57.86,11.06c5.88,9.68-.45,24.27-14.13,32.58-13.69,8.31-29.55,7.2-35.43-2.49-5.88-9.68,.45-24.27,14.13-32.58C36.12,.27,51.98,1.38,57.86,11.06Z" />
                <path class="j" d="M45.16,9.98c3.51,5.78-.87,14.86-9.78,20.27-8.92,5.41-18.99,5.11-22.5-.67-3.51-5.78,.87-14.86,9.78-20.28,8.92-5.41,18.99-5.11,22.5,.67Z" />
            </g>
        </g>
    </g>
</svg>