<?xml version="1.0" encoding="UTF-8"?>
<svg xmlns="http://www.w3.org/2000/svg" xmlns:xlink="http://www.w3.org/1999/xlink" viewBox="0 0 76.5 76.5">
    <defs>
        <style>.e{fill:#b24c58;}.f{fill:#82494e;}.g{fill:#652229;opacity:.2;}.h{fill:url(#d);}.h,.i{opacity:.3;}.i{fill:#fff;}</style>
        <linearGradient id="d" x1="-95.72" y1="-5.73" x2="-79.95" y2="23.28" gradientTransform="translate(99.44 3.87) rotate(-9.05) scale(.83 .85) skewX(1.3)" gradientUnits="userSpaceOnUse">
            <stop offset="0" stop-color="#fff" />
            <stop offset="1" stop-color="#fff" stop-opacity="0" />
        </linearGradient>
    </defs>
    <g id="a" />
    <g id="b">
        <g id="c">
            <g>
                <g>
                    <circle class="f" cx="38.25" cy="38.25" r="38.25" />
                    <path class="e" d="M38.25,0C21.73,0,7.66,10.47,2.31,25.14c4.87-1.38,8.96-.69,12.86,1.7,4.5,2.75,10.5-.67,14.83-8.83,4.33-8.17,7.75,1.42,12.75,7.25s7.58-3.42,5.58-11.83c-.29-1.21-1.1-4.9,.82-5.25,2.15-.39,3.98,1.57,5.43,2.84,1.75,1.52,3.49,3.16,5.58,4.2,2.34,1.16,4.93,1.91,7.46,2.54,.61,.15,1.22,.3,1.83,.44,.22,.05,1.46,.15,1.56,.32C64.32,7.42,52.15,0,38.25,0Z" />
                    <path class="g" d="M47.85,75.28c3.88-1,7.53-2.61,10.83-4.7,.88-.59,1.73-1.22,2.56-1.88,2.94-2.35,5.64-5.05,7.97-8.01,4.58-6.3,7.28-14.05,7.28-22.44,0-1.55-.1-3.07-.28-4.57-.59,1.47-1.46,3.56-1.72,4.19-1.26,3.09-1.7,7.13-4.72,9.13-.91,.6-2.48,.46-3.38-.15-2.48-1.68-3.67-4.73-4.88-7.34-.67-1.43-1.25-2.88-1.76-4.38-.25-.72-.54-1.44-.74-2.18,0-.03-.01-.06-.02-.09,.92,4.42,2.68,12.64-.89,16.38-7.42,7.76-18.57-2.51-21.21-9.77-1.09-3-1.92-6.67-2.02-9.86,.34,10.77-9.56,19.17-18.9,22.59-2.71,1-7.16,1.77-9.97,.7-1.16-.44-3.87-1.97-4.27-3.24,.02,.05,.04,.11,.05,.16,.15,.47,.31,.93,.47,1.39,.08,.22,.17,.45,.25,.67,.12,.31,.24,.62,.37,.93,.1,.23,.2,.46,.3,.7,.13,.3,.26,.59,.4,.88,.1,.22,.21,.45,.32,.67,.16,.32,.32,.64,.49,.95,.1,.18,.19,.37,.29,.55,.26,.47,.53,.94,.8,1.4,.11,.18,.22,.35,.33,.52,.19,.3,.38,.6,.58,.9,.13,.2,.27,.39,.4,.59,.19,.27,.38,.54,.58,.81,.14,.19,.28,.38,.42,.57,.21,.28,.43,.56,.66,.84,.13,.16,.26,.32,.39,.48,.35,.42,.7,.83,1.07,1.23,.1,.11,.2,.21,.3,.32,.28,.31,.57,.61,.86,.9,.15,.15,.31,.3,.46,.45,.25,.25,.5,.49,.76,.73,.16,.15,.33,.3,.5,.45,.27,.24,.54,.48,.82,.71,.16,.13,.31,.26,.47,.39,.37,.3,.75,.6,1.14,.89,.06,.05,.12,.1,.19,.15,.44,.33,.9,.65,1.35,.96,.16,.11,.32,.21,.47,.31,.32,.21,.64,.42,.96,.61,.18,.11,.36,.22,.54,.33,.32,.19,.64,.38,.97,.56,.18,.1,.35,.2,.53,.29,.39,.21,.78,.41,1.17,.6,.12,.06,.23,.12,.35,.17,.51,.24,1.02,.48,1.55,.7,.14,.06,.29,.12,.44,.18,.39,.16,.77,.31,1.17,.46,.19,.07,.38,.14,.57,.21,.36,.13,.72,.25,1.09,.37,.19,.06,.39,.12,.59,.18,.4,.12,.8,.23,1.21,.34,.16,.04,.31,.09,.47,.13,.56,.14,1.13,.27,1.7,.39,.11,.02,.21,.04,.32,.06,.47,.09,.94,.18,1.41,.25,.2,.03,.39,.06,.59,.08,.4,.06,.79,.11,1.19,.15,.21,.02,.42,.05,.63,.07,.41,.04,.82,.07,1.24,.09,.19,.01,.38,.03,.57,.04,.6,.03,1.2,.05,1.81,.05,2.1,0,4.29-.34,6.37-.63,1.09-.15,2.17-.35,3.24-.59Z" />
                </g>
                <path class="h" d="M50.5,9.29c5.07,8.63-.71,21.44-12.91,28.61-12.2,7.17-26.21,5.98-31.28-2.65C1.24,26.62,7.02,13.81,19.22,6.64,31.42-.53,45.42,.66,50.5,9.29Z" />
                <path class="i" d="M39.29,8.17c3.03,5.16-.96,13.12-8.91,17.79-7.95,4.67-16.85,4.28-19.88-.88-3.03-5.16,.95-13.12,8.91-17.79,7.95-4.67,16.85-4.28,19.88,.88Z" />
            </g>
        </g>
    </g>
</svg>