<?xml version="1.0" encoding="UTF-8"?><svg xmlns="http://www.w3.org/2000/svg" viewBox="0 0 72.03 71.94"><defs><style>.d{fill:#fff;}.e{fill:#fd8c7f;}.f{fill:#fd6d60;}.g{fill:#657576;}.h{fill:#b5c5c6;}.i{fill:#a5b5b6;}.j{fill:#c52e25;}.k{fill:#d53d33;}.l{fill:#c5d5d6;}.m{fill:#d5e5e6;}</style></defs><g id="a"/><g id="b"><g id="c"><g><path class="l" d="M45.68,42.76c-.82,.82-1.63,1.62-2.45,2.4-.17,.16-.34,.32-.5,.48-1.91,1.79-3.81,3.48-5.7,5.05-.25,.21-.49,.41-.73,.61-2.58,2.12-5.12,4.01-7.54,5.64-.34,.23-.67,.45-1.01,.67-8.6,5.61-15.68,7.8-18.44,5.04-2.71-2.71-.66-9.58,4.73-17.98,.2-.31,.41-.63,.63-.95,1.64-2.49,3.57-5.09,5.75-7.75,.19-.24,.38-.48,.58-.71,1.63-1.98,3.4-3.99,5.29-6,.16-.16,.32-.33,.48-.5,.78-.83,1.59-1.65,2.41-2.48,1.02-1.02,2.07-2,3.13-2.93,.17-.14,.33-.29,.5-.43,2.15-1.85,4.37-3.51,6.58-4.99,.21-.14,.42-.28,.62-.41,3.63-2.39,7.24-4.32,10.55-5.85,.21-.1,.43-.2,.64-.3h0c.27-.12,.55-.25,.82-.36,6.58-2.9,11.75-4.2,13.14-4.53,.25-.06,.38-.09,.38-.09,0,0-.03,.13-.09,.39-.34,1.43-1.67,6.68-4.62,13.33h0c-.12,.28-.25,.56-.38,.84-.14,.31-.28,.62-.43,.92-1.49,3.19-3.34,6.62-5.62,10.08-.13,.21-.27,.41-.42,.62-1.48,2.21-3.13,4.41-4.97,6.56-.14,.17-.28,.33-.43,.5-.93,1.06-1.91,2.11-2.93,3.13Z"/><g><path class="f" d="M7.37,58.14c-.59,.5-1.2,1.05-1.8,1.65-3.25,3.25-4.21,7.54-4.21,7.54,0,0,.9-.2,2.17-.73-1.59,2.31-2.28,4.61-2.46,5.28,.68-.18,2.97-.87,5.28-2.46-.53,1.28-.73,2.17-.73,2.17,0,0,4.29-.97,7.54-4.21,.6-.6,1.15-1.21,1.65-1.8l-7.44-7.44Z"/><path class="e" d="M7.39,58.16c-2.24,2.94-2.96,6.09-2.96,6.09,0,0,.9-.2,2.17-.73-1.59,2.31-2.28,4.61-2.46,5.28,.68-.18,2.97-.87,5.28-2.46-.53,1.28-.73,2.17-.73,2.17,0,0,3.14-.72,6.08-2.96l-7.39-7.39Z"/></g><g><path class="m" d="M41.13,38.71c-15.4,15.4-29.65,26.11-31.83,23.92-2.18-2.18,8.53-16.43,23.92-31.83,15.4-15.4,31.83-23.92,31.83-23.92,0,0-8.53,16.44-23.92,31.83Z"/><path class="h" d="M9.07,62.87c-2.72-2.72,10.3-18.67,23.92-32.29,15.25-15.25,31.75-23.9,31.91-23.98,.25-.13,.57,.19,.44,.44-.08,.17-8.73,16.66-23.98,31.91-13.63,13.63-29.57,26.64-32.29,23.92ZM64.24,7.7c-3.75,2.08-17.72,10.27-30.78,23.34C17.16,47.33,7.77,60.65,9.53,62.4c1.76,1.76,15.08-7.63,31.37-23.92,13.07-13.07,21.25-27.04,23.34-30.78Z"/></g><rect class="h" x="58.37" y="6.24" width="13.29" height="1.55" transform="translate(14.1 48.05) rotate(-45.02)"/><path class="j" d="M71.54,2.84c-.65,.65-1.7,.65-2.35,0-.65-.65-.65-1.7,0-2.35s1.7-.65,2.35,0c.65,.65,.65,1.7,0,2.35Z"/><g><g><path class="g" d="M19.53,52.41c-1.41-1.41-1.41-3.71,0-5.12,1.41-1.41,3.71-1.41,5.12,0s1.41,3.71,0,5.12c-1.41,1.41-3.71,1.41-5.12,0Zm4.33-4.33c-.98-.98-2.57-.98-3.55,0s-.98,2.57,0,3.55,2.57,.98,3.55,0c.98-.98,.98-2.57,0-3.55Z"/><path class="m" d="M24.06,51.82c-1.09,1.09-2.85,1.09-3.94,0-1.09-1.09-1.09-2.85,0-3.94,1.09-1.09,2.85-1.09,3.94,0,1.09,1.09,1.09,2.85,0,3.94Z"/><path class="d" d="M23.89,50.35c-.36,.36-.94,.36-1.3,0-.36-.36-.36-.94,0-1.3,.36-.36,.94-.36,1.3,0,.36,.36,.36,.94,0,1.3Z"/></g><g><path class="g" d="M27.13,44.81c-1.41-1.41-1.41-3.71,0-5.12,1.41-1.41,3.71-1.41,5.12,0,1.41,1.41,1.41,3.71,0,5.12s-3.71,1.41-5.12,0Zm4.33-4.33c-.98-.98-2.57-.98-3.55,0s-.98,2.57,0,3.55c.98,.98,2.57,.98,3.55,0,.98-.98,.98-2.57,0-3.55Z"/><path class="m" d="M31.66,44.22c-1.09,1.09-2.85,1.09-3.94,0s-1.09-2.85,0-3.94,2.85-1.09,3.94,0c1.09,1.09,1.09,2.85,0,3.94Z"/><path class="d" d="M31.49,42.75c-.36,.36-.94,.36-1.3,0s-.36-.94,0-1.3c.36-.36,.94-.36,1.3,0,.36,.36,.36,.94,0,1.3Z"/></g><g><path class="g" d="M34.73,37.21c-1.41-1.41-1.41-3.71,0-5.12s3.71-1.41,5.12,0c1.41,1.41,1.41,3.71,0,5.12-1.41,1.41-3.71,1.41-5.12,0Zm4.33-4.33c-.98-.98-2.57-.98-3.55,0-.98,.98-.98,2.57,0,3.55,.98,.98,2.57,.98,3.55,0,.98-.98,.98-2.57,0-3.55Z"/><path class="m" d="M39.26,36.62c-1.09,1.09-2.85,1.09-3.94,0-1.09-1.09-1.09-2.85,0-3.94,1.09-1.09,2.85-1.09,3.94,0,1.09,1.09,1.09,2.85,0,3.94Z"/><path class="d" d="M39.09,35.15c-.36,.36-.94,.36-1.3,0-.36-.36-.36-.94,0-1.3,.36-.36,.94-.36,1.3,0,.36,.36,.36,.94,0,1.3Z"/></g><g><path class="g" d="M42.33,29.61c-1.41-1.41-1.41-3.71,0-5.12,1.41-1.41,3.71-1.41,5.12,0,1.41,1.41,1.41,3.71,0,5.12-1.41,1.41-3.71,1.41-5.12,0Zm4.34-4.34c-.98-.98-2.57-.98-3.55,0s-.98,2.57,0,3.55c.98,.98,2.57,.98,3.55,0,.98-.98,.98-2.57,0-3.55Z"/><path class="m" d="M46.86,29.02c-1.09,1.09-2.85,1.09-3.94,0-1.09-1.09-1.09-2.85,0-3.94,1.09-1.09,2.85-1.09,3.94,0,1.09,1.09,1.09,2.85,0,3.94Z"/><path class="d" d="M46.69,27.55c-.36,.36-.94,.36-1.3,0-.36-.36-.36-.94,0-1.3,.36-.36,.94-.36,1.3,0,.36,.36,.36,.94,0,1.3Z"/></g><g><path class="g" d="M49.92,22.01c-1.41-1.41-1.41-3.71,0-5.12s3.71-1.41,5.12,0,1.41,3.71,0,5.12-3.71,1.41-5.12,0Zm4.33-4.34c-.98-.98-2.57-.98-3.55,0s-.98,2.57,0,3.55c.98,.98,2.57,.98,3.55,0,.98-.98,.98-2.57,0-3.55Z"/><path class="m" d="M54.46,21.42c-1.09,1.09-2.85,1.09-3.94,0-1.09-1.09-1.09-2.85,0-3.94,1.09-1.09,2.85-1.09,3.94,0,1.09,1.09,1.09,2.85,0,3.94Z"/><path class="d" d="M54.29,19.95c-.36,.36-.94,.36-1.3,0-.36-.36-.36-.94,0-1.3s.94-.36,1.3,0c.36,.36,.36,.94,0,1.3Z"/></g></g><path class="h" d="M48.61,39.62l-16.29-16.29c.17-.14,.33-.29,.5-.43l16.22,16.22c-.14,.17-.28,.33-.43,.5Z"/><path class="h" d="M33.39,38.51c-3.09-3.09-5.36-6.53-6.62-9.77-.16,.17-.32,.34-.48,.5,1.31,3.25,3.57,6.67,6.64,9.73,3.09,3.09,6.52,5.36,9.79,6.66,.17-.16,.33-.32,.5-.48-3.25-1.26-6.72-3.54-9.83-6.65Zm20.62-5.94c.14-.21,.28-.41,.42-.62-1.35-2.84-3.41-5.76-6.06-8.41-2.63-2.63-5.52-4.67-8.34-6.03-.21,.13-.42,.27-.62,.41,2.86,1.32,5.81,3.38,8.5,6.08,2.71,2.71,4.78,5.69,6.11,8.57Z"/><path class="h" d="M18.11,53.53c-2.42-2.42-3.52-5.85-3.44-9.83-.22,.32-.43,.64-.63,.95,.1,3.76,1.27,7,3.61,9.34,2.5,2.5,6.02,3.66,10.1,3.61,.34-.22,.67-.44,1.01-.67-4.32,.26-8.07-.82-10.64-3.4ZM65.57,6.38s-.13,.03-.38,.09c.1,.1,.2,.2,.29,.31,.06-.26,.09-.39,.09-.39Z"/><path class="i" d="M15.52,65.84c-.33,.33-.75,.53-1.18,.59-.56,.09-1.15-.06-1.62-.43-.89-.43-2.17-1.4-3.44-2.67s-2.28-2.59-2.69-3.5c-.58-.82-.49-1.95,.24-2.69,.41-.41,.96-.62,1.49-.62,.18,0,.35,.02,.52,.06,0,.26,.13,.63,.37,1.07,.48,.88,1.38,2.04,2.54,3.2,1.76,1.76,3.54,2.94,4.3,2.91,.2,.71,.01,1.5-.54,2.06Z"/><path class="h" d="M15.52,65.84c-.33,.33-.75,.53-1.18,.59-.84-.5-1.88-1.33-2.92-2.38-1.3-1.3-2.27-2.6-2.68-3.5-.57-.82-.49-1.95,.24-2.68,.08-.08,.15-.14,.24-.2,.48,.88,1.38,2.04,2.54,3.2,1.76,1.76,3.54,2.94,4.3,2.91,.2,.71,.01,1.5-.54,2.06Z"/><g><path class="j" d="M11.74,63.79l-.03,.03c-.77,.78-2.97,1.82-3.75,1.07-.03-.03-.06-.06-.08-.1-.62-.83,.31-2.97,1.03-3.72l3.6-3.75,.03-.03c.75-.75,1.97-.77,2.74-.03,.02,.02,.04,.05,.06,.07,.72,.75,.72,1.94,0,2.7l-3.6,3.75Z"/><path class="k" d="M11.74,63.79l-.03,.03c-.77,.78-2.97,1.82-3.75,1.07-.03-.03-.06-.06-.08-.1l7.46-7.46c.72,.75,.72,1.94,0,2.7l-3.6,3.75Z"/></g><g><path class="j" d="M5.59,59.46c-.2,.01-.38-.02-.54-.1-.1-.05-.18-.11-.26-.19-.89-.89-.59-3.55-.05-4.66l2.83-5.77c.59-1.2,2.04-1.69,3.24-1.1,.25,.12,.46,.28,.64,.46,.14,.14,.27,.3,.37,.48,.41,.68,.47,1.54,.09,2.3l-2.84,5.77c-.51,1.03-2.25,2.74-3.49,2.81Z"/><path class="k" d="M5.59,59.46c-.15-.04-.28-.1-.39-.19-.03-.02-.05-.04-.07-.07-.92-.92,.02-3.72,.84-4.73l4.04-4.99c.46-.57,1.13-.87,1.81-.89,.41,.68,.47,1.54,.09,2.3l-2.84,5.77c-.51,1.03-2.25,2.74-3.49,2.81Z"/></g><g><path class="j" d="M12.62,66.49c-.01,.2,.02,.38,.1,.54,.05,.1,.11,.18,.19,.27,.89,.89,3.55,.59,4.66,.05l5.77-2.84c1.2-.59,1.69-2.04,1.1-3.24-.12-.25-.28-.46-.46-.64-.14-.14-.3-.27-.48-.37-.68-.41-1.54-.47-2.3-.09l-5.77,2.84c-1.03,.51-2.74,2.25-2.81,3.49Z"/><path class="k" d="M12.62,66.49c.04,.15,.1,.28,.19,.39,.02,.03,.04,.05,.07,.07,.92,.92,3.72-.02,4.73-.84l4.99-4.04c.57-.46,.87-1.13,.89-1.81-.68-.41-1.54-.47-2.3-.09l-5.77,2.84c-1.03,.51-2.74,2.25-2.81,3.49Z"/></g><path class="k" d="M60.48,20.94c-.8-2.23-2.06-4.26-3.79-5.99-.56-.56-1.14-1.06-1.76-1.52-1.15-.86-2.39-1.55-3.71-2.07,.27-.12,.55-.25,.82-.37,6.58-2.9,11.75-4.2,13.14-4.53,.25-.06,.38-.09,.38-.09,0,0-.01,.03-.02,.08-.01,.06-.04,.17-.07,.31-.34,1.43-1.67,6.68-4.62,13.33h0c-.12,.28-.25,.56-.38,.84Z"/><path class="j" d="M65.55,6.46c-1.99,1.09-6.21,3.58-10.62,6.97-1.15-.86-2.39-1.55-3.71-2.07,.27-.12,.55-.25,.82-.37,6.58-2.9,11.75-4.2,13.14-4.53,.25-.06,.38-.09,.38-.09,0,0-.01,.03-.02,.08Z"/><path class="h" d="M25.78,45.85c-2.88-2.88-4.46-6.62-4.79-10.62-.2,.24-.39,.48-.58,.71,.46,3.9,2.08,7.54,4.91,10.37,2.97,2.97,6.84,4.61,10.97,4.97,.25-.2,.49-.4,.73-.61-4.24-.21-8.22-1.81-11.24-4.83ZM60.86,20.11h0c-.84-2.07-2.07-3.99-3.71-5.62-1.5-1.5-3.23-2.67-5.11-3.49-.27,.12-.55,.24-.82,.37,2.02,.8,3.88,2,5.47,3.59,1.73,1.73,2.99,3.76,3.79,5.99,.13-.28,.25-.56,.38-.83Z"/><g><path class="k" d="M26.03,35.54l-11.6,11.6c-.27,.27-.69,.27-.96,0-3.46-3.34-8.87-3.32-12.31,.04-.1,.1-.21,.16-.34,.17-.22,.05-.46,0-.62-.18h0c-.27-.27-.26-.7,0-.97l11.52-11.52c3.91-3.91,10.32-3.96,14.3-.13h.01c.12,.14,.19,.31,.2,.49,0,.18-.07,.36-.2,.49Z"/><path class="j" d="M25.74,35.83l-11.3,11.3c-.27,.27-.69,.27-.96,0-3.46-3.34-8.87-3.32-12.31,.04-.1,.1-.21,.16-.34,.17l11.03-11.03c3.77-3.77,9.89-3.95,13.88-.5Z"/></g><g><path class="k" d="M36.41,45.91l-11.6,11.6c-.27,.27-.27,.69,0,.96,3.34,3.46,3.32,8.87-.04,12.31-.1,.1-.15,.21-.17,.34-.05,.22,0,.46,.18,.62h0c.27,.27,.7,.27,.96,0l11.52-11.52c3.91-3.91,3.96-10.32,.13-14.3h0c-.13-.14-.3-.2-.48-.21-.18,0-.36,.07-.49,.2Z"/><path class="j" d="M36.11,46.21l-11.3,11.3c-.27,.27-.27,.69,0,.96,3.34,3.46,3.32,8.87-.04,12.31-.1,.1-.15,.21-.17,.34l11.03-11.03c3.77-3.77,3.95-9.89,.5-13.88Z"/></g></g></g></g></svg>