<?xml version="1.0" encoding="UTF-8"?><svg xmlns="http://www.w3.org/2000/svg" viewBox="0 0 63.7 63.67"><defs><style>.d{fill:#ef893a;}.e{fill:#e54d42;}.f{fill:#fff;}.g{fill:#f19b2c;}.h{fill:#b5c5c6;}.i{fill:#c52e25;}.j{fill:#d53d33;}.k{fill:#d5e5e6;}.l{mix-blend-mode:multiply;}.m{isolation:isolate;}</style></defs><g class="m"><g id="a"/><g id="b"><g id="c"><g><g><g><path class="d" d="M23.31,54.26l-.03,.03c-5.95,5.95-13.82,7.72-13.82,7.72,0,0,.37-1.64,1.33-3.98-4.23,2.92-8.44,4.19-9.68,4.52,.32-1.24,1.6-5.45,4.51-9.68-2.34,.96-3.98,1.34-3.98,1.34,0,0,1.77-7.87,7.72-13.82,0,0,.02-.01,.03-.02l13.9,13.9Z"/><path class="g" d="M22.46,53.42c-3.99,2.18-7.35,2.95-7.35,2.95,0,0,.38-1.64,1.33-3.98-4.23,2.92-8.43,4.19-9.68,4.52,.33-1.25,1.6-5.45,4.51-9.68-2.34,.96-3.98,1.34-3.98,1.34,0,0,.77-3.36,2.95-7.35l12.2,12.2Z"/></g><g><path class="j" d="M24.32,53.77l-14.42-14.42c1.59-1.59,3.18-3.12,4.76-4.57,3.23-2.98,6.4-5.67,9.45-8.03h0c.77-.61,1.55-1.19,2.31-1.75,2.93-2.18,5.71-3.99,8.22-5.4,.93-.52,1.83-.98,2.68-1.39,4.42-2.1,7.72-2.6,9.23-1.09,1.51,1.51,1.01,4.81-1.09,9.23-.4,.85-.87,1.74-1.38,2.66-1.41,2.51-3.23,5.29-5.4,8.24-.56,.76-1.15,1.53-1.75,2.31-2.36,3.04-5.06,6.22-8.03,9.45-1.46,1.58-2.99,3.17-4.57,4.76Z"/><path class="e" d="M20.4,49.85l-6.58-6.58c1.59-1.59,3.16-3.13,4.71-4.62,2.11-2.03,4.16-3.97,6.14-5.79,.45-.41,.9-.82,1.35-1.22,.47-.43,.94-.85,1.41-1.27,3.82-3.42,7.31-6.33,10.22-8.55,.53-.41,1.04-.79,1.53-1.15,.52-.38,1.02-.74,1.5-1.06,3.16-2.17,5.26-3.12,5.88-2.5s-.33,2.72-2.51,5.88c-.32,.47-.67,.97-1.05,1.49-.36,.49-.75,1-1.15,1.54-.31,.4-.62,.81-.95,1.23-1.28,1.63-2.75,3.4-4.37,5.31-1.01,1.18-2.1,2.41-3.23,3.69-.42,.46-.84,.94-1.27,1.41-.4,.44-.81,.89-1.21,1.34-1.82,1.98-3.75,4.03-5.79,6.14-1.49,1.55-3.03,3.12-4.62,4.71Z"/></g></g><path class="h" d="M49.03,38.5l-15.32,15.32L9.85,29.96l15.32-15.32C37.76,2.05,57.09,.29,62.33,.05c0,0,.02,0,.02,0C63.2,0,63.68,0,63.68,0h0V.02s0,.02,0,.04c0,.04,0,.1,0,.18,0,0,0,0,0,.01-.01,1.12-.18,6.02-1.55,12.35-1.73,7.97-5.38,18.2-13.09,25.9Z"/><g><path class="k" d="M41.37,35.38c-3.61,3.61-9.46,3.61-13.07,0s-3.61-9.46,0-13.07c3.61-3.61,9.46-3.61,13.07,0,3.61,3.61,3.61,9.46,0,13.07Z"/><path class="i" d="M45.46,26.35c-.27-1.17-.74-2.31-1.41-3.36-.42-.67-.92-1.3-1.49-1.88-.58-.58-1.21-1.08-1.88-1.5-1.04-.67-2.18-1.13-3.35-1.41-3.56-.83-7.45,.13-10.22,2.9-1.6,1.6-2.59,3.57-2.99,5.63h0c-.39,2.04-.2,4.17,.56,6.12,.53,1.35,1.35,2.62,2.44,3.7,1.09,1.09,2.35,1.9,3.7,2.43,1.95,.77,4.08,.96,6.12,.56,2.06-.4,4.03-1.4,5.63-3,2.77-2.77,3.74-6.66,2.91-10.21Zm-15.98,7.84c-1.08-1.08-1.77-2.42-2.06-3.81-.5-2.41,.19-5.02,2.05-6.88,2.2-2.2,5.45-2.76,8.17-1.66,.92,.37,1.78,.92,2.53,1.67,.75,.75,1.3,1.61,1.67,2.53,1.1,2.73,.54,5.96-1.67,8.17-1.87,1.87-4.48,2.55-6.89,2.05-1.4-.29-2.73-.97-3.81-2.05Z"/><path class="f" d="M40.27,31.65c-1.44,1.44-3.79,1.44-5.23,0-1.44-1.44-1.44-3.79,0-5.23,1.44-1.45,3.78-1.45,5.23,0,1.44,1.44,1.44,3.79,0,5.23Z"/></g><g><path class="k" d="M54.28,16.48c-1.96,1.96-5.13,1.96-7.08,0s-1.95-5.13,0-7.08c1.96-1.95,5.13-1.95,7.08,0,1.96,1.96,1.96,5.13,0,7.08Z"/><path class="i" d="M54.92,8.75c-2.31-2.31-6.06-2.31-8.37,0-2.31,2.31-2.31,6.06,0,8.37s6.05,2.31,8.37,0,2.31-6.06,0-8.36Zm-7.08,7.08c-1.6-1.6-1.6-4.19,0-5.8s4.19-1.59,5.79,0c1.6,1.6,1.6,4.2,0,5.79-1.6,1.6-4.2,1.6-5.8,0Z"/><path class="f" d="M53.68,14.46c-.78,.78-2.05,.78-2.83,0-.78-.78-.78-2.05,0-2.83,.78-.78,2.05-.78,2.83,0s.78,2.05,0,2.83Z"/></g><g><g><path class="d" d="M11.94,35.35l-.02,.02c-3.2,3.2-7.43,4.15-7.43,4.15,0,0,.2-.88,.72-2.14-2.28,1.57-4.54,2.25-5.21,2.43,.18-.67,.86-2.93,2.43-5.21-1.26,.52-2.14,.72-2.14,.72,0,0,.96-4.23,4.15-7.43l.02-.02,7.48,7.48Z"/><path class="g" d="M11.49,34.9c-2.15,1.18-3.95,1.58-3.95,1.58,0,0,.2-.88,.71-2.14-2.27,1.57-4.54,2.25-5.21,2.43,.18-.67,.87-2.93,2.43-5.21-1.25,.51-2.13,.72-2.13,.72,0,0,.41-1.81,1.58-3.95l6.57,6.57Z"/></g><g><path class="j" d="M12.48,35.09l-7.75-7.75c8.76-8.75,17.58-14.1,19.71-11.96,2.04,2.04-2.72,10.13-10.73,18.46-.4,.42-.81,.84-1.23,1.26Z"/><path class="e" d="M10.38,32.98l-3.54-3.54c8.76-8.75,16.64-15.04,17.61-14.07,.93,.93-4.73,8.12-12.83,16.36-.4,.42-.82,.83-1.24,1.25Z"/></g></g><g><g><path class="d" d="M28.32,51.73h-.01c-3.2,3.21-4.15,7.45-4.15,7.45,0,0,.88-.2,2.14-.72-1.57,2.28-2.25,4.54-2.43,5.21,.67-.18,2.93-.86,5.21-2.43-.52,1.26-.72,2.14-.72,2.14,0,0,4.24-.96,7.44-4.15h.01l-7.48-7.49Z"/><path class="g" d="M28.77,52.19c-1.17,2.14-1.58,3.95-1.58,3.95,0,0,.88-.2,2.14-.72-1.57,2.28-2.25,4.54-2.43,5.21,.67-.18,2.93-.86,5.21-2.43-.52,1.26-.72,2.14-.72,2.14,0,0,1.81-.41,3.95-1.58l-6.57-6.57Z"/></g><g><path class="j" d="M36.34,58.95c8.75-8.77,14.1-17.58,11.96-19.72-2.14-2.14-10.96,3.22-19.72,11.96l7.76,7.76Z"/><path class="e" d="M34.23,56.84c8.75-8.76,15.05-16.64,14.07-17.61-.97-.98-8.85,5.32-17.61,14.07l3.54,3.54Z"/></g></g><path class="i" d="M63.69,0h0s-.02,0-.03,.02c-.02,0-.04,.01-.07,.02-.72,.3-4.63,1.96-10.02,5.07-.97-1.17-1.82-2.36-2.53-3.54C56.1,.47,60.28,.14,62.33,.05c0,0,.02,0,.02,0,.75-.02,1.2-.03,1.31-.03h.02Z"/><path class="e" d="M62.13,12.61c.15-.68,.28-1.33,.4-1.97,.05-.22,.09-.44,.12-.66,.11-.57,.2-1.12,.28-1.66,.06-.38,.12-.75,.16-1.12,.26-1.83,.41-3.4,.49-4.6,.01-.12,.02-.25,.02-.37,.07-1.04,.09-1.76,.09-2.06-.3,.71-1.95,4.62-5.06,9.99,1.15,.93,2.32,1.75,3.49,2.44Z"/><path class="j" d="M53.56,5.13c.7,.86,1.47,1.71,2.3,2.54,.91,.91,1.84,1.74,2.79,2.5C61.75,4.79,63.4,.88,63.7,.17c0-.06,0-.09,0-.12-.03,0-.06,0-.12,0-.72,.3-4.63,1.96-10.02,5.07Z"/><g class="l"><path class="k" d="M11.94,35.35l-.02,.02c-3.2,3.2-7.43,4.15-7.43,4.15,0,0,.2-.88,.72-2.14-2.28,1.57-4.54,2.25-5.21,2.43,.18-.67,.86-2.93,2.43-5.21-1.26,.52-2.14,.72-2.14,.72,0,0,.96-4.23,4.15-7.43l.02-.02,7.48,7.48Z"/><path class="k" d="M63.68,0L17.11,46.56l-7.21-7.21c1.59-1.59,3.18-3.12,4.76-4.57l-.95-.95c-.4,.42-.81,.84-1.23,1.26l-7.75-7.75c8.76-8.75,17.58-14.1,19.71-11.96l.73-.73C37.76,2.05,57.09,.29,62.33,.05c0,0,.02,0,.02,0C63.2,0,63.68,0,63.68,0Z"/><path class="k" d="M16.36,47.31L1.13,62.55c.32-1.24,1.6-5.45,4.51-9.68-2.34,.96-3.98,1.34-3.98,1.34,0,0,1.77-7.87,7.72-13.82,0,0,.02-.01,.03-.02l6.95,6.95Z"/></g></g></g></g></g></svg>