<?xml version="1.0" encoding="UTF-8"?><svg xmlns="http://www.w3.org/2000/svg" viewBox="0 0 72.68 73.2"><defs><style>.d{fill:#f7b23f;}.e{fill:#f3aa43;}.f{fill:#fff;}.g{fill:#fd8c7f;}.h{fill:#fd6d60;}.i{fill:#657576;}.j{fill:#b5c5c6;}.k{fill:#a5b5b6;}.l{fill:#c52e25;}.m{fill:#d53d33;}.n{fill:#d5e5e6;}.o{fill:#95a5a6;}</style></defs><g id="a"/><g id="b"><g id="c"><g><g><path class="h" d="M7.59,56.66c-.71,.6-1.44,1.26-2.17,1.99-3.91,3.91-5.07,9.07-5.07,9.07,0,0,1.08-.25,2.61-.88-1.92,2.78-2.75,5.54-2.97,6.36,.82-.22,3.58-1.05,6.36-2.96-.63,1.54-.88,2.61-.88,2.61,0,0,5.17-1.16,9.07-5.07,.72-.73,1.39-1.45,1.99-2.17l-8.95-8.95Z"/><path class="g" d="M7.62,56.69c-2.7,3.54-3.56,7.32-3.56,7.32,0,0,1.08-.25,2.61-.88-1.91,2.78-2.75,5.54-2.96,6.36,.82-.22,3.58-1.05,6.36-2.97-.63,1.53-.88,2.61-.88,2.61,0,0,3.78-.86,7.32-3.56l-8.89-8.89Z"/></g><g><path class="o" d="M12.23,52.3h1.91c1.51,0,2.73,1.22,2.73,2.73v9.82c0,1.51-1.22,2.73-2.73,2.73h-1.91c-1.51,0-2.73-1.22-2.73-2.73v-9.82c0-1.51,1.22-2.73,2.73-2.73Z" transform="translate(-38.51 26.87) rotate(-44.99)"/><path class="j" d="M13.32,54.94h1.91c1.51,0,2.73,1.22,2.73,2.73v6.73c0,1.51-1.22,2.73-2.73,2.73h-1.91c-1.51,0-2.73-1.22-2.73-2.73v-6.73c0-1.51,1.22-2.73,2.73-2.73Z" transform="translate(-38.97 27.96) rotate(-44.99)"/><path class="k" d="M12.35,55.34h1.91c1.51,0,2.73,1.22,2.73,2.73v3.96c0,1.51-1.22,2.73-2.73,2.73h-1.91c-1.51,0-2.73-1.22-2.73-2.73v-3.96c0-1.51,1.22-2.73,2.73-2.73Z" transform="translate(-38.57 26.99) rotate(-45)"/></g><path class="m" d="M59.78,27.95L24.85,62.88l-.03-.03c-1.29,.94-3.11,.83-4.27-.33l-10.37-10.37c-1.16-1.16-1.27-2.99-.33-4.27l-.03-.03L44.73,12.91c.15-.15,.3-.3,.45-.44C56.27,1.75,72.17,.05,72.67,0c0,0,.01,0,.01,0,0,0,0,0,0,.01-.05,.5-1.74,16.33-12.39,27.42-.17,.18-.34,.35-.51,.52Z"/><path class="l" d="M55.32,23L20.14,58.17h-.01c-1.18,1.04-2.4,1.53-2.84,1.1l-3.88-3.88c-.44-.44,.06-1.65,1.11-2.84h-.01L49.68,17.36C60.71,6.41,72.31,.2,72.67,0c0,0,.01,0,.01,0,0,0,0,0,0,.01-.2,.36-6.41,11.95-17.36,22.99Z"/><g><path class="i" d="M21.81,50.87c-1.4-1.4-1.4-3.67,0-5.06,1.4-1.4,3.67-1.4,5.06,0,1.4,1.4,1.4,3.67,0,5.06-1.4,1.4-3.67,1.4-5.06,0Zm4.28-4.28c-.97-.97-2.54-.97-3.51,0-.97,.97-.97,2.54,0,3.51,.97,.97,2.54,.97,3.51,0,.97-.97,.97-2.54,0-3.51Z"/><path class="n" d="M26.29,50.29c-1.08,1.08-2.82,1.08-3.9,0-1.07-1.08-1.08-2.82,0-3.89,1.08-1.08,2.82-1.08,3.9,0,1.07,1.08,1.07,2.82,0,3.9Z"/><path class="f" d="M26.12,48.84c-.35,.35-.93,.36-1.29,0-.35-.36-.35-.93,0-1.29,.36-.36,.93-.36,1.29,0,.36,.36,.36,.93,0,1.29Z"/></g><g><path class="i" d="M29.23,43.45c-1.4-1.4-1.39-3.67,0-5.06,1.4-1.4,3.67-1.4,5.06,0,1.4,1.4,1.4,3.67,0,5.06-1.4,1.4-3.67,1.4-5.06,0Zm4.29-4.29c-.97-.97-2.54-.97-3.5,0-.97,.97-.97,2.54,0,3.51,.97,.97,2.54,.97,3.51,0,.96-.97,.96-2.54,0-3.51Z"/><path class="n" d="M33.71,42.86c-1.08,1.08-2.82,1.08-3.9,0-1.08-1.08-1.08-2.82,0-3.9,1.07-1.08,2.82-1.08,3.89,0,1.08,1.08,1.08,2.82,0,3.9Z"/><path class="f" d="M33.54,41.41c-.36,.36-.93,.36-1.29,0-.36-.36-.36-.93,0-1.29,.35-.35,.93-.36,1.29,0,.36,.36,.35,.93,0,1.29Z"/></g><g><path class="i" d="M36.66,36.02c-1.4-1.4-1.4-3.67,0-5.06,1.4-1.4,3.67-1.4,5.06,0,1.4,1.4,1.4,3.67,0,5.06-1.4,1.4-3.67,1.4-5.06,0Zm4.29-4.28c-.97-.97-2.54-.97-3.51,0-.97,.97-.97,2.54,0,3.51,.97,.97,2.54,.97,3.51,0,.97-.97,.97-2.54,0-3.51Z"/><path class="n" d="M41.14,35.44c-1.08,1.08-2.82,1.08-3.9,0-1.08-1.08-1.08-2.82,0-3.9,1.08-1.08,2.82-1.08,3.9,0,1.08,1.08,1.07,2.82,0,3.9Z"/><path class="f" d="M40.97,33.98c-.35,.36-.93,.36-1.29,0-.35-.36-.35-.93,0-1.29,.36-.36,.93-.36,1.29,0,.36,.36,.36,.93,0,1.29Z"/></g><g><path class="i" d="M44.08,28.6c-1.4-1.4-1.39-3.67,0-5.06,1.39-1.4,3.67-1.4,5.06,0,1.4,1.4,1.4,3.67,0,5.06-1.4,1.4-3.67,1.4-5.06,0Zm4.29-4.28c-.97-.97-2.54-.97-3.51,0-.97,.97-.97,2.54,0,3.51,.97,.97,2.54,.97,3.51,0,.97-.97,.97-2.54,0-3.51Z"/><path class="n" d="M48.56,28.01c-1.08,1.08-2.82,1.08-3.89,0-1.08-1.08-1.08-2.82,0-3.9,1.07-1.08,2.82-1.08,3.89,0,1.08,1.08,1.08,2.82,0,3.9Z"/><path class="f" d="M48.4,26.56c-.36,.35-.93,.36-1.29,0-.36-.36-.36-.93,0-1.29,.35-.36,.93-.36,1.29,0,.36,.36,.35,.93,0,1.29Z"/></g><g><path class="k" d="M28.42,34.24l-11.19,11.19c-.26,.26-.67,.26-.92,0-3.34-3.22-8.56-3.21-11.88,.04-.09,.09-.21,.15-.33,.17-.21,.05-.44,0-.6-.17h0c-.26-.26-.25-.68,0-.93l11.12-11.12c3.77-3.77,9.96-3.82,13.79-.13h0c.12,.13,.19,.3,.19,.47,0,.18-.07,.35-.19,.47Z"/><path class="o" d="M28.14,34.53l-10.91,10.91c-.26,.26-.67,.26-.92,0-3.34-3.22-8.56-3.21-11.88,.04-.09,.09-.21,.15-.33,.17l10.64-10.64c3.64-3.64,9.54-3.81,13.39-.48Z"/></g><g><path class="k" d="M38.44,44.25l-11.19,11.19c-.26,.26-.26,.67,0,.92,3.22,3.34,3.21,8.56-.04,11.88-.09,.09-.15,.21-.17,.33-.05,.21,0,.44,.17,.6h0c.26,.26,.67,.26,.93,0l11.12-11.12c3.77-3.77,3.82-9.96,.13-13.79h0c-.12-.13-.29-.2-.46-.2-.18,0-.35,.07-.47,.19Z"/><path class="o" d="M38.15,44.54l-10.9,10.91c-.26,.26-.26,.67,0,.92,3.22,3.34,3.21,8.56-.04,11.88-.09,.09-.15,.21-.17,.33l10.64-10.64c3.64-3.64,3.81-9.54,.48-13.39Z"/></g><g><path class="k" d="M42.94,18.97l-7.08,7.08c-.16,.16-.42,.16-.58,0-2.11-2.04-5.41-2.03-7.51,.02-.06,.06-.13,.09-.21,.11-.13,.03-.28,0-.38-.11h0c-.16-.17-.16-.43,0-.59l7.03-7.03c2.39-2.39,6.3-2.42,8.72-.08h0c.08,.08,.12,.19,.12,.3,0,.11-.04,.22-.12,.3Z"/><path class="o" d="M42.76,19.15l-6.9,6.9c-.16,.16-.42,.16-.58,0-2.11-2.04-5.41-2.03-7.51,.02-.06,.06-.13,.09-.21,.11l6.73-6.73c2.3-2.3,6.03-2.41,8.47-.3Z"/></g><g><path class="k" d="M53.56,29.59l-7.08,7.08c-.16,.16-.16,.42,0,.58,2.04,2.11,2.03,5.41-.02,7.51-.06,.06-.09,.13-.11,.21-.03,.13,0,.28,.11,.38h0c.16,.17,.42,.16,.59,0l7.03-7.03c2.39-2.39,2.42-6.3,.08-8.73h0c-.08-.08-.18-.12-.29-.13-.11,0-.22,.04-.3,.12Z"/><path class="o" d="M53.38,29.77l-6.9,6.9c-.16,.16-.16,.42,0,.58,2.04,2.11,2.03,5.41-.02,7.51-.06,.06-.09,.13-.11,.21l6.73-6.73c2.3-2.3,2.41-6.03,.3-8.47Z"/></g><path class="d" d="M60.29,27.43c-.91-.55-1.76-1.22-2.54-2l-10.8-10.8c-.67-.67-1.26-1.4-1.77-2.17C56.27,1.75,72.17,.05,72.67,0c0,0,.01,0,.01,0,0,0,0,0,0,.01-.05,.5-1.74,16.33-12.39,27.42Z"/><path class="e" d="M55.7,22.84c-.46-.11-.85-.31-1.15-.61l-4.21-4.21c-.26-.26-.45-.59-.57-.97C60.74,6.22,72.31,.19,72.67,0h0c-.18,.37-6.19,11.89-16.97,22.84Z"/></g></g></g></svg>