<?xml version="1.0" encoding="UTF-8"?><svg xmlns="http://www.w3.org/2000/svg" viewBox="0 0 60.98 60.55"><defs><style>.d{fill:#f7b23f;}.e{fill:#f8be49;}.f{fill:#f3aa43;}.g{fill:#fff;}.h{fill:#e47e30;}.i{fill:#fce2aa;}.j{fill:#657576;}.k{fill:#859596;}.l{fill:#d5e5e6;}.m{fill:#3ec1e6;}.n{fill:#42cdf5;}.o{fill:#34a3c2;}.p{fill:#95a5a6;}.q{fill:#556566;}</style></defs><g id="a"/><g id="b"><g id="c"><g><g><path class="m" d="M32.37,9.15c-9.44,7.66-20,2.55-20,2.55l-1.42,18.87S41.81,1.5,32.37,9.15Z"/><path class="o" d="M32.32,10.16c-9.44,7.66-20,2.55-20,2.55l-1.42,18.87S41.75,2.5,32.32,10.16Z"/></g><g><path class="m" d="M51.73,28.5c-7.66,9.44-2.55,20-2.55,20l-18.87,1.42s29.08-30.86,21.42-21.42Z"/><path class="o" d="M50.72,28.56c-7.66,9.44-2.55,20-2.55,20l-18.87,1.42s29.08-30.86,21.42-21.42Z"/></g><path class="q" d="M35.4,46.06c-1.02,1.02-2.67,1.02-3.69,0L14.88,29.23c-1.02-1.02-1.02-2.67,0-3.69h0c1.02-1.02,2.67-1.02,3.69,0l16.84,16.84c1.02,1.02,1.02,2.67,0,3.69h0Z"/><g><path class="f" d="M52.22,4.41c-.83-1.01-1.56-2.03-2.18-3.05-6.86,1.49-15.62,4.64-22.23,11.24l-13.18,13.18,5.87,5.87,13.18-13.18c6.38-6.38,13.27-11.03,18.53-14.07Z"/><path class="e" d="M49.43,31.98c.16-.17,.32-.35,.47-.53,.36-.41,.71-.83,1.04-1.26,.15-.19,.3-.38,.44-.57,.17-.22,.33-.44,.49-.66,.15-.21,.29-.42,.44-.62,.14-.21,.29-.42,.43-.63,.14-.21,.28-.42,.42-.64,.15-.23,.29-.45,.42-.68,.12-.2,.24-.4,.36-.61,.07-.12,.14-.23,.21-.35,.11-.2,.22-.4,.34-.6,.45-.8,.86-1.62,1.24-2.43,.08-.19,.17-.37,.25-.56,.12-.24,.23-.49,.33-.73,.09-.2,.17-.39,.25-.59,.29-.68,.55-1.35,.8-2.02,.14-.39,.28-.77,.41-1.15,.09-.25,.17-.51,.25-.75,.07-.21,.14-.43,.21-.65,.2-.64,.39-1.27,.56-1.9,.11-.38,.2-.76,.3-1.13,.18-.71,.34-1.4,.49-2.08-1-.6-2.01-1.3-3-2.1-3.04,5.26-7.7,12.17-14.08,18.56l-13.18,13.18,5.83,5.83,13.18-13.18c.37-.38,.74-.76,1.09-1.15Z"/><path class="d" d="M56.59,8.74c-.81-.65-1.62-1.37-2.4-2.15-.71-.71-1.37-1.44-1.98-2.18-5.26,3.04-12.15,7.69-18.53,14.07l-13.18,13.18,8.82,8.82,13.18-13.18c6.39-6.39,11.05-13.29,14.08-18.56Z"/><path class="o" d="M60.84,.04s.08-.03,.09-.04c-.23,0-4.81,.02-10.89,1.35,.62,1.01,1.35,2.04,2.18,3.05C56.85,1.72,60.22,.3,60.84,.04Z"/><path class="n" d="M59.59,10.84c.13-.58,.24-1.14,.34-1.7,.04-.19,.08-.38,.1-.57,.09-.49,.17-.97,.24-1.43,.05-.33,.1-.65,.14-.96,.22-1.58,.35-2.92,.42-3.96,.01-.11,.02-.21,.02-.32,.06-.9,.08-1.52,.08-1.78-.26,.61-1.68,3.97-4.35,8.6,.99,.8,2,1.51,3,2.1Z"/><path class="l" d="M60.94,.04V.02s0-.02,0-.02c0,0,0,0-.01,0-.02,0-.04,.02-.09,.04h.1Z"/><path class="l" d="M60.98,.05s0-.01,0-.01c0,0,0,0-.02,0h-.02s0,.05,0,.1c.02-.05,.03-.08,.04-.09Z"/><path class="m" d="M52.22,4.41c.61,.74,1.26,1.47,1.98,2.18,.78,.78,1.59,1.5,2.4,2.15,2.67-4.62,4.1-7.98,4.35-8.6,0-.05,0-.08,0-.1h-.1c-.62,.26-3.99,1.68-8.62,4.37Z"/></g><path class="h" d="M0,60.55s11.43-1.11,19.17-8.85l8.08-8.08-10.32-10.32-8.08,8.08C1.11,49.12,0,60.55,0,60.55Z"/><path class="f" d="M4.75,55.8s7.83-.76,13.13-6.06l5.54-5.53-7.07-7.07-5.53,5.53c-5.3,5.3-6.06,13.13-6.06,13.13Z"/><path class="i" d="M10.18,50.37s5.02-.49,8.42-3.89l3.55-3.55-4.53-4.53-3.55,3.55c-3.4,3.4-3.89,8.42-3.89,8.42Z"/><path class="q" d="M41.41,19.7c-2.64-2.64-2.63-6.92,0-9.56,2.64-2.63,6.92-2.64,9.56,0,2.63,2.64,2.64,6.93,0,9.56-2.63,2.64-6.92,2.64-9.56,0Zm8.09-8.09c-1.83-1.83-4.8-1.83-6.62,0-1.83,1.83-1.83,4.8,0,6.62,1.83,1.83,4.79,1.83,6.62,0s1.83-4.79,0-6.62Z"/><path class="l" d="M49.87,18.6c-2.03,2.03-5.33,2.03-7.36,0-2.03-2.03-2.03-5.33,0-7.36,2.03-2.03,5.33-2.03,7.36,0,2.03,2.03,2.03,5.32,0,7.36Z"/><path class="g" d="M49.56,15.86c-.67,.67-1.76,.67-2.43,0s-.67-1.76,0-2.43c.67-.67,1.76-.67,2.43,0,.67,.67,.67,1.76,0,2.43Z"/><g><path class="j" d="M29.13,46.86c-.93,.93-2.44,.94-3.38,0l-11.56-11.56c-.93-.93-.93-2.45,0-3.38,.46-.47,1.08-.7,1.69-.7,.61,0,1.22,.24,1.69,.7l11.56,11.56c.94,.94,.93,2.45,0,3.38Z"/><path class="p" d="M29.13,46.86c-.93,.93-2.44,.94-3.38,0l-7.94-7.94c-.93-.93-.93-2.45,0-3.38,.47-.47,1.08-.7,1.69-.7s1.22,.24,1.69,.7l7.94,7.94c.94,.94,.93,2.45,0,3.38Z"/><path class="k" d="M25.51,43.23c-.93,.93-2.44,.94-3.38,0l-4.32-4.32c-.93-.93-.93-2.45,0-3.38,.47-.47,1.08-.7,1.69-.7s1.22,.24,1.69,.7l4.32,4.32c.94,.94,.93,2.45,0,3.38Z"/></g><g><polygon class="m" points="35.9 30.45 14.04 46.62 30.21 24.76 38.1 22.56 35.9 30.45"/><polygon class="o" points="38.1 22.56 14.04 46.62 30.21 24.76 38.1 22.56"/></g></g></g></g></svg>